<?xml version="1.0" encoding="utf-8"?>
<!-- Generator: Adobe Illustrator 23.0.1, SVG Export Plug-In . SVG Version: 6.00 Build 0)  -->
<svg version="1.1" id="レイヤー_1" xmlns="http://www.w3.org/2000/svg" xmlns:xlink="http://www.w3.org/1999/xlink" x="0px"
	 y="0px" viewBox="0 0 2445 657" style="enable-background:new 0 0 2445 657;" xml:space="preserve">
<style type="text/css">
	.st0{fill:none;stroke:#555555;stroke-miterlimit:10;}
	.st1{fill:#C4C4C4;filter:#Adobe_OpacityMaskFilter;}
	.st2{mask:#mask0_1_;}
	.st3{fill:#ADC9E9;}
	.st4{fill:#F55F44;}
	.st5{opacity:2.000000e-02;enable-background:new    ;}
	.st6{fill:#4D8BF0;}
	.st7{fill:#39D29F;}
	.st8{fill:#FDD835;}
	.st9{fill:#3E4754;}
	.st10{fill:#11D1A6;}
	.st11{fill:#0C85D3;}
	.st12{fill:#FFFFFF;}
	.st13{fill:#333041;}
	.st14{fill:#C7E0E2;}
	.st15{fill:#3E6673;}
	.st16{opacity:0.2;fill:#FFFFFF;enable-background:new    ;}
	.st17{fill:#DDDDDD;}
	.st18{fill:#08A380;}
	.st19{fill:#E0E0E0;}
	.st20{fill:#FFA637;}
</style>
<path class="st0" d="M1225,296.3c0,0,8.5,3.8,7.8,10.7c0,0-0.5-7.9,8.2-9.7"/>
<path class="st0" d="M1275,282.5c0,0,4.6,2.1,4.2,5.9c0,0-0.3-4.4,4.5-5.3"/>
<path class="st0" d="M1355.3,276c0,0,4.6,2.1,4.2,5.9c0,0-0.3-4.4,4.5-5.3"/>
<defs>
	<filter id="Adobe_OpacityMaskFilter" filterUnits="userSpaceOnUse" x="143" y="346" width="2206" height="412.8">
		<feColorMatrix  type="matrix" values="1 0 0 0 0  0 1 0 0 0  0 0 1 0 0  0 0 0 1 0"/>
	</filter>
</defs>
<mask maskUnits="userSpaceOnUse" x="143" y="346" width="2206" height="412.8" id="mask0_1_">
	<rect x="149" y="299" class="st1" width="2200" height="278"/>
</mask>
<g class="st2">
	<path class="st3" d="M697,472c-264,0-479.3-84-554-126v350c172.7,42,576.8,105.2,812,22c294-104,502-58,874,0
		c297.6,46.4,470.7-19.3,520-58V354c-44.7,22.7-178.4,68-356,68c-222,0-288-30-446-30C1199,392,1027,472,697,472z"/>
</g>
<path class="st4" d="M1562.7,343.4h-38.1v23.4h38.1V343.4z"/>
<path class="st5" d="M1556.5,343.4h-5.1v23.4h5.1V343.4z"/>
<path class="st5" d="M1546.2,343.4h-5.1v23.4h5.1V343.4z"/>
<path class="st5" d="M1535.9,343.4h-5.1v23.4h5.1V343.4z"/>
<path class="st4" d="M1524.8,366.9h-38.1v22.3h38.1V366.9z"/>
<path class="st5" d="M1518.6,366.9h-5.1v22.3h5.1V366.9z"/>
<path class="st5" d="M1508.3,366.9h-5.1v22.3h5.1V366.9z"/>
<path class="st5" d="M1498.1,366.9h-5.1v22.3h5.1V366.9z"/>
<path class="st6" d="M1562.7,366.8h-38.1v22.4h38.1V366.8z"/>
<path class="st5" d="M1556.5,366.8h-5.1v22.4h5.1V366.8z"/>
<path class="st5" d="M1546.2,366.8h-5.1v22.4h5.1V366.8z"/>
<path class="st5" d="M1535.9,366.8h-5.1v22.4h5.1V366.8z"/>
<path class="st7" d="M1600.9,366.8h-38.1v22.4h38.1V366.8z"/>
<path class="st5" d="M1594.7,366.8h-5.1v22.4h5.1V366.8z"/>
<path class="st5" d="M1584.4,366.8h-5.1v22.4h5.1V366.8z"/>
<path class="st5" d="M1574.2,366.8h-5.1v22.4h5.1V366.8z"/>
<path class="st8" d="M1639.1,366.8H1601v22.4h38.1V366.8z"/>
<path class="st5" d="M1632.8,366.8h-5.1v22.4h5.1V366.8z"/>
<path class="st5" d="M1622.6,366.8h-5.1v22.4h5.1V366.8z"/>
<path class="st5" d="M1612.3,366.8h-5.1v22.4h5.1V366.8z"/>
<path class="st7" d="M1639.1,343.4H1601v23.4h38.1V343.4z"/>
<path class="st5" d="M1632.8,343.4h-5.1v23.4h5.1V343.4z"/>
<path class="st5" d="M1622.6,343.4h-5.1v23.4h5.1V343.4z"/>
<path class="st5" d="M1612.3,343.4h-5.1v23.4h5.1V343.4z"/>
<path class="st6" d="M1600.9,343.6h-38.1v23.2h38.1V343.6z"/>
<path class="st5" d="M1594.7,343.6h-5.1v23.2h5.1V343.6z"/>
<path class="st5" d="M1584.4,343.6h-5.1v23.2h5.1V343.6z"/>
<path class="st5" d="M1574.2,343.6h-5.1v23.2h5.1V343.6z"/>
<path class="st9" d="M1391.2,335v36.1h-25.4l6.7-36.1H1391.2z"/>
<path class="st10" d="M1370.4,346.6l2.1-11.6h18.6v11.6H1370.4z"/>
<path class="st11" d="M1682.3,427l23.7-55.9h-55.7l-4.2,9h-69.4l-5.9,9h-75.7l-9.3-9.9l-37.1,0.9l-7.6-9H1349V399l38,28H1682.3z"/>
<path class="st9" d="M1690.5,407.8l-8.1,19.2H1387l-26-19.2H1690.5z"/>
<path class="st12" d="M1646.1,380.1l4.2-9h55.7l-3.8,9H1646.1z"/>
<path class="st12" d="M1349,371.1h92.1l7.6,9H1349V371.1z"/>
<path class="st13" d="M1427.7,358.8l2.3,3.9h-33l1.9-3.9H1427.7z"/>
<path class="st13" d="M1427,350h-28.2v4h28.2V350z"/>
<path class="st14" d="M1436.2,362.6h-57.6v9h57.6V362.6z"/>
<path class="st14" d="M1429.8,354.1h-32.9v4.7h32.9V354.1z"/>
<path class="st14" d="M1429.8,345.3h-32.9v4.8h32.9V345.3z"/>
<path class="st14" d="M1427,341.8h-5.4v3.4h5.4V341.8z"/>
<path class="st14" d="M1429.8,339.2h-10.4v2.6h10.4V339.2z"/>
<path class="st14" d="M1417.2,343.6h-3.8v4.1h3.8V343.6z"/>
<path class="st14" d="M1406.6,340.5h-2.6v7.2h2.6V340.5z"/>
<path class="st14" d="M1402.3,342.9h-1.7v4.7h1.7V342.9z"/>
<path class="st14" d="M1408.9,339.8h-7.3v1.3h7.3V339.8z"/>
<path class="st15" d="M1432.9,365.3h-3.5v3.7h3.5V365.3z"/>
<path class="st15" d="M1427.5,365.3h-3.5v3.7h3.5V365.3z"/>
<path class="st15" d="M1422.1,365.3h-3.5v3.7h3.5V365.3z"/>
<path class="st15" d="M1416.7,365.3h-3.5v3.7h3.5V365.3z"/>
<path class="st15" d="M1411.3,365.3h-3.5v3.7h3.5V365.3z"/>
<path class="st15" d="M1405.9,365.3h-3.5v3.7h3.5V365.3z"/>
<path class="st15" d="M1400.6,365.3h-3.5v3.7h3.5V365.3z"/>
<path class="st15" d="M1395.2,365.3h-3.5v3.7h3.5V365.3z"/>
<path class="st15" d="M1389.8,365.3h-3.5v3.7h3.5V365.3z"/>
<path class="st15" d="M1384.4,365.3h-3.5v3.7h3.5V365.3z"/>
<path class="st12" d="M1355.9,387.3c0,1.5,1.2,2.7,2.6,2.7c1.4,0,2.5-1.2,2.5-2.7c0-1.5-1.2-2.7-2.5-2.7
	C1357,384.6,1355.9,385.8,1355.9,387.3z"/>
<path class="st12" d="M1376,387.3c0,1.5,1.2,2.7,2.6,2.7c1.4,0,2.6-1.2,2.6-2.7c0-1.5-1.2-2.7-2.6-2.7
	C1377.2,384.6,1376,385.8,1376,387.3z"/>
<path class="st12" d="M1396.2,387.3c0,1.5,1.2,2.7,2.5,2.7c1.4,0,2.5-1.2,2.5-2.7c0-1.5-1.2-2.7-2.5-2.7
	C1397.3,384.6,1396.2,385.8,1396.2,387.3z"/>
<path class="st12" d="M1416.3,387.3c0,1.5,1.2,2.7,2.5,2.7c1.4,0,2.6-1.2,2.6-2.7c0-1.5-1.2-2.7-2.6-2.7
	C1417.4,384.6,1416.3,385.8,1416.3,387.3z"/>
<path class="st12" d="M1436.4,387.3c0,1.5,1.2,2.7,2.6,2.7c1.4,0,2.6-1.2,2.6-2.7c0-1.5-1.2-2.7-2.6-2.7
	C1437.6,384.6,1436.4,385.8,1436.4,387.3z"/>
<path class="st12" d="M1456.6,387.3c0,1.5,1.2,2.7,2.6,2.7c1.4,0,2.5-1.2,2.5-2.7c0-1.5-1.2-2.7-2.5-2.7
	C1457.7,384.6,1456.6,385.8,1456.6,387.3z"/>
<path class="st12" d="M1476.7,387.3c0,1.5,1.2,2.7,2.5,2.7c1.4,0,2.5-1.2,2.5-2.7c0-1.5-1.1-2.7-2.5-2.7
	C1477.9,384.6,1476.7,385.8,1476.7,387.3z"/>
<path class="st12" d="M1685.3,388.4c0,2.1,1.6,3.9,3.6,3.9c2,0,3.6-1.7,3.6-3.9c0-2.1-1.6-3.9-3.6-3.9
	C1686.9,384.6,1685.3,386.3,1685.3,388.4z"/>
<path class="st10" d="M771.7,265.7L758.7,221c-0.1-0.2,0-0.4,0.1-0.5c0.1-0.2,0.4-0.3,0.5-0.3l15.8-0.2c0.2,0,0.4,0.1,0.5,0.3
	l22.1,30.9l16.2,9.4c0.3,0.2,0.4,0.4,0.4,0.7c-0.1,0.3-0.3,0.4-0.5,0.5l-41.3,4.5h-0.1C772.1,266.2,771.8,266,771.7,265.7z"/>
<path class="st16" d="M748.5,276.4v-8.6c0,0,69.5-8.9,104.2-8.6c34.6,0.4,96,0,106.1,0c10.2,0,21.1,7.4,24.8,10.3
	c5.6,4.3,16.3,6,16.3,12.2s-7.5,12.2-37.6,12.2c-30,0-85.1-1.3-114-3.3C814.2,288.3,748.5,276.4,748.5,276.4z"/>
<path class="st12" d="M748.5,276.4v-8.6c0,0,69.5-8.9,104.2-8.6c34.6,0.4,96,0,106.1,0c10.2,0,21.1,7.4,24.8,10.3
	c5.6,4.3,16.3,6,16.3,12.2s-7.5,12.2-37.6,12.2c-30,0-85.1-1.3-114-3.3C814.2,288.3,748.5,276.4,748.5,276.4z"/>
<path class="st17" d="M985.9,271c-0.5,0.5-1.2,1-2,1h-10.2c-1.5,0-2.7-1.2-2.7-2.8c0-1.5,1.2-2.8,2.7-2.8h4.9h0.4c0,0,2.4,1.4,4,2.7
	C984.5,270.3,985.9,271,985.9,271z"/>
<path class="st10" d="M897.6,296.1h5.5c1.4,0,2.5-1.2,2.5-2.5v-0.7c0-1.4-1.1-2.5-2.5-2.5h-5.5c-1.4,0-2.5,1.2-2.5,2.5v0.7
	C895,294.9,896.2,296.1,897.6,296.1z"/>
<path class="st17" d="M948,273.1c1.9,0,3.4-1.6,3.4-3.5c0-1.9-1.5-3.5-3.4-3.5s-3.4,1.6-3.4,3.5C944.6,271.6,946.1,273.1,948,273.1z
	"/>
<path class="st17" d="M938.2,273.1c1.9,0,3.4-1.6,3.4-3.5c0-1.9-1.5-3.5-3.4-3.5c-1.9,0-3.4,1.6-3.4,3.5
	C934.8,271.6,936.3,273.1,938.2,273.1z"/>
<path class="st17" d="M928.4,273.1c1.9,0,3.4-1.6,3.4-3.5c0-1.9-1.5-3.5-3.4-3.5c-1.9,0-3.4,1.6-3.4,3.5
	C925,271.6,926.5,273.1,928.4,273.1z"/>
<path class="st17" d="M918.6,273.1c1.9,0,3.4-1.6,3.4-3.5c0-1.9-1.5-3.5-3.4-3.5s-3.4,1.6-3.4,3.5
	C915.2,271.6,916.7,273.1,918.6,273.1z"/>
<path class="st17" d="M868.1,273.1c1.9,0,3.4-1.6,3.4-3.5c0-1.9-1.5-3.5-3.4-3.5c-1.9,0-3.4,1.6-3.4,3.5
	C864.6,271.6,866.2,273.1,868.1,273.1z"/>
<path class="st17" d="M858.3,273.1c1.9,0,3.4-1.6,3.4-3.5c0-1.9-1.5-3.5-3.4-3.5c-1.9,0-3.4,1.6-3.4,3.5
	C854.8,271.6,856.4,273.1,858.3,273.1z"/>
<path class="st17" d="M848.4,273.1c1.9,0,3.4-1.6,3.4-3.5c0-1.9-1.5-3.5-3.4-3.5c-1.9,0-3.4,1.6-3.4,3.5
	C845,271.6,846.5,273.1,848.4,273.1z"/>
<path class="st17" d="M838.6,273.1c1.9,0,3.4-1.6,3.4-3.5c0-1.9-1.5-3.5-3.4-3.5c-1.9,0-3.4,1.6-3.4,3.5
	C835.2,271.6,836.7,273.1,838.6,273.1z"/>
<path class="st17" d="M903.3,273.1c1.9,0,3.4-1.6,3.4-3.5c0-1.9-1.5-3.5-3.4-3.5c-1.9,0-3.4,1.6-3.4,3.5
	C899.9,271.6,901.4,273.1,903.3,273.1z"/>
<path class="st17" d="M893.5,273.1c1.9,0,3.4-1.6,3.4-3.5c0-1.9-1.5-3.5-3.4-3.5s-3.4,1.6-3.4,3.5
	C890.1,271.6,891.6,273.1,893.5,273.1z"/>
<path class="st17" d="M883.7,273.1c1.9,0,3.4-1.6,3.4-3.5c0-1.9-1.5-3.5-3.4-3.5c-1.9,0-3.4,1.6-3.4,3.5
	C880.3,271.6,881.8,273.1,883.7,273.1z"/>
<path class="st10" d="M871.7,284.7l-16.6-8.7c-0.3-0.2-0.4-0.4-0.4-0.8c0.1-0.4,0.4-0.5,0.7-0.4l63,4.1c0.4,0,0.6,0.4,0.6,0.7
	l-0.2,4.6c0,0.4-0.3,0.6-0.6,0.6H872C871.9,284.8,871.8,284.8,871.7,284.7z"/>
<path class="st18" d="M905.8,296.8h2.9c1.4,0,2.5-1.2,2.5-2.5v-2.3c0-1.4-1.1-2.5-2.5-2.5h-2.9c-1.4,0-2.5,1.2-2.5,2.5v2.3
	C903.3,295.7,904.5,296.8,905.8,296.8z"/>
<path class="st10" d="M913.8,299h20.8c3.2,0,5.8-2.7,5.8-5.9c0-3.2-2.7-5.9-5.8-5.9h-20.8c-3.2,0-5.8,2.7-5.8,5.9
	C908,296.3,910.7,299,913.8,299z"/>
<path class="st19" d="M750.5,266.9H747v11h3.5V266.9z"/>
<path class="st11" d="M964.6,265.6h-7.9V281h7.9V265.6z"/>
<path class="st11" d="M830.8,265.6h-7.9V281h7.9V265.6z"/>
<path class="st20" d="M779.5,225.7h-19.4l-1-3.3h18L779.5,225.7z"/>
<path class="st20" d="M876,284.8l-18.6-9.9l8.1,0.6l17.5,9.3H876z"/>
</svg>
