<?xml version="1.0" encoding="utf-8"?>
<!-- Generator: Adobe Illustrator 23.0.1, SVG Export Plug-In . SVG Version: 6.00 Build 0)  -->
<svg version="1.1" id="レイヤー_1" xmlns="http://www.w3.org/2000/svg" xmlns:xlink="http://www.w3.org/1999/xlink" x="0px"
	 y="0px" viewBox="0 0 2206 657" style="enable-background:new 0 0 2206 657;" xml:space="preserve">
<style type="text/css">
	.st0{fill:none;stroke:#555555;stroke-miterlimit:10;}
	.st1{fill:#ADC9E9;}
	.st2{fill:#F55F44;}
	.st3{opacity:2.000000e-02;enable-background:new    ;}
	.st4{fill:#4D8BF0;}
	.st5{fill:#39D29F;}
	.st6{fill:#FDD835;}
	.st7{fill:#3E4754;}
	.st8{fill:#11D1A6;}
	.st9{fill:#0C85D3;}
	.st10{fill:#FFFFFF;}
	.st11{fill:#333041;}
	.st12{fill:#C7E0E2;}
	.st13{fill:#3E6673;}
	.st14{opacity:0.2;fill:#FFFFFF;enable-background:new    ;}
	.st15{fill:#DDDDDD;}
	.st16{fill:#08A380;}
	.st17{fill:#E0E0E0;}
	.st18{fill:#FFA637;}
</style>
<path class="st0" d="M1082,296.3c0,0,8.5,3.8,7.8,10.7c0,0-0.5-7.9,8.2-9.7"/>
<path class="st0" d="M1132,282.5c0,0,4.6,2.1,4.2,5.9c0,0-0.3-4.4,4.5-5.3"/>
<path class="st0" d="M1212.3,276c0,0,4.6,2.1,4.2,5.9c0,0-0.3-4.4,4.5-5.3"/>
<g>
	<path class="st1" d="M2206,657V354c-44.7,22.7-178.4,68-356,68c-222,0-288-30-446-30c-348,0-520,80-850,80C290,472,74.7,388,0,346
		v311H2206z"/>
</g>
<path class="st2" d="M1419.7,343.4h-38.1v23.4h38.1V343.4z"/>
<path class="st3" d="M1413.5,343.4h-5.1v23.4h5.1V343.4z"/>
<path class="st3" d="M1403.2,343.4h-5.1v23.4h5.1V343.4z"/>
<path class="st3" d="M1392.9,343.4h-5.1v23.4h5.1V343.4z"/>
<path class="st2" d="M1381.8,366.9h-38.1v22.3h38.1V366.9z"/>
<path class="st3" d="M1375.6,366.9h-5.1v22.3h5.1V366.9z"/>
<path class="st3" d="M1365.3,366.9h-5.1v22.3h5.1V366.9z"/>
<path class="st3" d="M1355.1,366.9h-5.1v22.3h5.1V366.9z"/>
<path class="st4" d="M1419.7,366.8h-38.1v22.4h38.1V366.8z"/>
<path class="st3" d="M1413.5,366.8h-5.1v22.4h5.1V366.8z"/>
<path class="st3" d="M1403.2,366.8h-5.1v22.4h5.1V366.8z"/>
<path class="st3" d="M1392.9,366.8h-5.1v22.4h5.1V366.8z"/>
<path class="st5" d="M1457.9,366.8h-38.1v22.4h38.1V366.8z"/>
<path class="st3" d="M1451.7,366.8h-5.1v22.4h5.1V366.8z"/>
<path class="st3" d="M1441.4,366.8h-5.1v22.4h5.1V366.8z"/>
<path class="st3" d="M1431.2,366.8h-5.1v22.4h5.1V366.8z"/>
<path class="st6" d="M1496.1,366.8H1458v22.4h38.1V366.8z"/>
<path class="st3" d="M1489.8,366.8h-5.1v22.4h5.1V366.8z"/>
<path class="st3" d="M1479.6,366.8h-5.1v22.4h5.1V366.8z"/>
<path class="st3" d="M1469.3,366.8h-5.1v22.4h5.1V366.8z"/>
<path class="st5" d="M1496.1,343.4H1458v23.4h38.1V343.4z"/>
<path class="st3" d="M1489.8,343.4h-5.1v23.4h5.1V343.4z"/>
<path class="st3" d="M1479.6,343.4h-5.1v23.4h5.1V343.4z"/>
<path class="st3" d="M1469.3,343.4h-5.1v23.4h5.1V343.4z"/>
<path class="st4" d="M1457.9,343.6h-38.1v23.2h38.1V343.6z"/>
<path class="st3" d="M1451.7,343.6h-5.1v23.2h5.1V343.6z"/>
<path class="st3" d="M1441.4,343.6h-5.1v23.2h5.1V343.6z"/>
<path class="st3" d="M1431.2,343.6h-5.1v23.2h5.1V343.6z"/>
<path class="st7" d="M1248.2,335v36.1h-25.4l6.7-36.1H1248.2z"/>
<path class="st8" d="M1227.4,346.6l2.1-11.6h18.6v11.6H1227.4z"/>
<path class="st9" d="M1539.3,427l23.7-55.9h-55.7l-4.2,9h-69.4l-5.9,9h-75.7l-9.3-9.9l-37.1,0.9l-7.6-9H1206V399l38,28H1539.3z"/>
<path class="st7" d="M1547.5,407.8l-8.1,19.2H1244l-26-19.2H1547.5z"/>
<path class="st10" d="M1503.1,380.1l4.2-9h55.7l-3.8,9H1503.1z"/>
<path class="st10" d="M1206,371.1h92.1l7.6,9H1206V371.1z"/>
<path class="st11" d="M1284.7,358.8l2.3,3.9h-33l1.9-3.9H1284.7z"/>
<path class="st11" d="M1284,350h-28.2v4h28.2V350z"/>
<path class="st12" d="M1293.2,362.6h-57.6v9h57.6V362.6z"/>
<path class="st12" d="M1286.8,354.1h-32.9v4.7h32.9V354.1z"/>
<path class="st12" d="M1286.8,345.3h-32.9v4.8h32.9V345.3z"/>
<path class="st12" d="M1284,341.8h-5.4v3.4h5.4V341.8z"/>
<path class="st12" d="M1286.8,339.2h-10.4v2.6h10.4V339.2z"/>
<path class="st12" d="M1274.2,343.6h-3.8v4.1h3.8V343.6z"/>
<path class="st12" d="M1263.6,340.5h-2.6v7.2h2.6V340.5z"/>
<path class="st12" d="M1259.3,342.9h-1.7v4.7h1.7V342.9z"/>
<path class="st12" d="M1265.9,339.8h-7.3v1.3h7.3V339.8z"/>
<path class="st13" d="M1289.9,365.3h-3.5v3.7h3.5V365.3z"/>
<path class="st13" d="M1284.5,365.3h-3.5v3.7h3.5V365.3z"/>
<path class="st13" d="M1279.1,365.3h-3.5v3.7h3.5V365.3z"/>
<path class="st13" d="M1273.7,365.3h-3.5v3.7h3.5V365.3z"/>
<path class="st13" d="M1268.3,365.3h-3.5v3.7h3.5V365.3z"/>
<path class="st13" d="M1262.9,365.3h-3.5v3.7h3.5V365.3z"/>
<path class="st13" d="M1257.6,365.3h-3.5v3.7h3.5V365.3z"/>
<path class="st13" d="M1252.2,365.3h-3.5v3.7h3.5V365.3z"/>
<path class="st13" d="M1246.8,365.3h-3.5v3.7h3.5V365.3z"/>
<path class="st13" d="M1241.4,365.3h-3.5v3.7h3.5V365.3z"/>
<path class="st10" d="M1212.9,387.3c0,1.5,1.2,2.7,2.6,2.7s2.5-1.2,2.5-2.7s-1.2-2.7-2.5-2.7C1214,384.6,1212.9,385.8,1212.9,387.3z
	"/>
<path class="st10" d="M1233,387.3c0,1.5,1.2,2.7,2.6,2.7s2.6-1.2,2.6-2.7s-1.2-2.7-2.6-2.7C1234.2,384.6,1233,385.8,1233,387.3z"/>
<path class="st10" d="M1253.2,387.3c0,1.5,1.2,2.7,2.5,2.7c1.4,0,2.5-1.2,2.5-2.7s-1.2-2.7-2.5-2.7
	C1254.3,384.6,1253.2,385.8,1253.2,387.3z"/>
<path class="st10" d="M1273.3,387.3c0,1.5,1.2,2.7,2.5,2.7c1.4,0,2.6-1.2,2.6-2.7s-1.2-2.7-2.6-2.7
	C1274.4,384.6,1273.3,385.8,1273.3,387.3z"/>
<path class="st10" d="M1293.4,387.3c0,1.5,1.2,2.7,2.6,2.7s2.6-1.2,2.6-2.7s-1.2-2.7-2.6-2.7
	C1294.6,384.6,1293.4,385.8,1293.4,387.3z"/>
<path class="st10" d="M1313.6,387.3c0,1.5,1.2,2.7,2.6,2.7s2.5-1.2,2.5-2.7s-1.2-2.7-2.5-2.7
	C1314.7,384.6,1313.6,385.8,1313.6,387.3z"/>
<path class="st10" d="M1333.7,387.3c0,1.5,1.2,2.7,2.5,2.7c1.4,0,2.5-1.2,2.5-2.7s-1.1-2.7-2.5-2.7
	C1334.9,384.6,1333.7,385.8,1333.7,387.3z"/>
<path class="st10" d="M1542.3,388.4c0,2.1,1.6,3.9,3.6,3.9s3.6-1.7,3.6-3.9c0-2.1-1.6-3.9-3.6-3.9
	C1543.9,384.6,1542.3,386.3,1542.3,388.4z"/>
<path class="st8" d="M628.7,265.7l-13-44.7c-0.1-0.2,0-0.4,0.1-0.5c0.1-0.2,0.4-0.3,0.5-0.3l15.8-0.2c0.2,0,0.4,0.1,0.5,0.3
	l22.1,30.9l16.2,9.4c0.3,0.2,0.4,0.4,0.4,0.7c-0.1,0.3-0.3,0.4-0.5,0.5l-41.3,4.5h-0.1C629.1,266.2,628.8,266,628.7,265.7z"/>
<path class="st14" d="M605.5,276.4v-8.6c0,0,69.5-8.9,104.2-8.6c34.6,0.4,96,0,106.1,0c10.2,0,21.1,7.4,24.8,10.3
	c5.6,4.3,16.3,6,16.3,12.2s-7.5,12.2-37.6,12.2c-30,0-85.1-1.3-114-3.3C671.2,288.3,605.5,276.4,605.5,276.4z"/>
<path class="st10" d="M605.5,276.4v-8.6c0,0,69.5-8.9,104.2-8.6c34.6,0.4,96,0,106.1,0c10.2,0,21.1,7.4,24.8,10.3
	c5.6,4.3,16.3,6,16.3,12.2s-7.5,12.2-37.6,12.2c-30,0-85.1-1.3-114-3.3C671.2,288.3,605.5,276.4,605.5,276.4z"/>
<path class="st15" d="M842.9,271c-0.5,0.5-1.2,1-2,1h-10.2c-1.5,0-2.7-1.2-2.7-2.8c0-1.5,1.2-2.8,2.7-2.8h4.9h0.4c0,0,2.4,1.4,4,2.7
	C841.5,270.3,842.9,271,842.9,271z"/>
<path class="st8" d="M754.6,296.1h5.5c1.4,0,2.5-1.2,2.5-2.5v-0.7c0-1.4-1.1-2.5-2.5-2.5h-5.5c-1.4,0-2.5,1.2-2.5,2.5v0.7
	C752,294.9,753.2,296.1,754.6,296.1z"/>
<path class="st15" d="M805,273.1c1.9,0,3.4-1.6,3.4-3.5s-1.5-3.5-3.4-3.5s-3.4,1.6-3.4,3.5C801.6,271.6,803.1,273.1,805,273.1z"/>
<path class="st15" d="M795.2,273.1c1.9,0,3.4-1.6,3.4-3.5s-1.5-3.5-3.4-3.5s-3.4,1.6-3.4,3.5C791.8,271.6,793.3,273.1,795.2,273.1z"
	/>
<path class="st15" d="M785.4,273.1c1.9,0,3.4-1.6,3.4-3.5s-1.5-3.5-3.4-3.5s-3.4,1.6-3.4,3.5C782,271.6,783.5,273.1,785.4,273.1z"/>
<path class="st15" d="M775.6,273.1c1.9,0,3.4-1.6,3.4-3.5s-1.5-3.5-3.4-3.5s-3.4,1.6-3.4,3.5C772.2,271.6,773.7,273.1,775.6,273.1z"
	/>
<path class="st15" d="M725.1,273.1c1.9,0,3.4-1.6,3.4-3.5s-1.5-3.5-3.4-3.5s-3.4,1.6-3.4,3.5C721.6,271.6,723.2,273.1,725.1,273.1z"
	/>
<path class="st15" d="M715.3,273.1c1.9,0,3.4-1.6,3.4-3.5s-1.5-3.5-3.4-3.5s-3.4,1.6-3.4,3.5C711.8,271.6,713.4,273.1,715.3,273.1z"
	/>
<path class="st15" d="M705.4,273.1c1.9,0,3.4-1.6,3.4-3.5s-1.5-3.5-3.4-3.5s-3.4,1.6-3.4,3.5C702,271.6,703.5,273.1,705.4,273.1z"/>
<path class="st15" d="M695.6,273.1c1.9,0,3.4-1.6,3.4-3.5s-1.5-3.5-3.4-3.5s-3.4,1.6-3.4,3.5C692.2,271.6,693.7,273.1,695.6,273.1z"
	/>
<path class="st15" d="M760.3,273.1c1.9,0,3.4-1.6,3.4-3.5s-1.5-3.5-3.4-3.5s-3.4,1.6-3.4,3.5C756.9,271.6,758.4,273.1,760.3,273.1z"
	/>
<path class="st15" d="M750.5,273.1c1.9,0,3.4-1.6,3.4-3.5s-1.5-3.5-3.4-3.5s-3.4,1.6-3.4,3.5C747.1,271.6,748.6,273.1,750.5,273.1z"
	/>
<path class="st15" d="M740.7,273.1c1.9,0,3.4-1.6,3.4-3.5s-1.5-3.5-3.4-3.5s-3.4,1.6-3.4,3.5C737.3,271.6,738.8,273.1,740.7,273.1z"
	/>
<path class="st8" d="M728.7,284.7l-16.6-8.7c-0.3-0.2-0.4-0.4-0.4-0.8c0.1-0.4,0.4-0.5,0.7-0.4l63,4.1c0.4,0,0.6,0.4,0.6,0.7
	l-0.2,4.6c0,0.4-0.3,0.6-0.6,0.6H729C728.9,284.8,728.8,284.8,728.7,284.7z"/>
<path class="st16" d="M762.8,296.8h2.9c1.4,0,2.5-1.2,2.5-2.5V292c0-1.4-1.1-2.5-2.5-2.5h-2.9c-1.4,0-2.5,1.2-2.5,2.5v2.3
	C760.3,295.7,761.5,296.8,762.8,296.8z"/>
<path class="st8" d="M770.8,299h20.8c3.2,0,5.8-2.7,5.8-5.9c0-3.2-2.7-5.9-5.8-5.9h-20.8c-3.2,0-5.8,2.7-5.8,5.9
	S767.7,299,770.8,299z"/>
<path class="st17" d="M607.5,266.9H604v11h3.5V266.9z"/>
<path class="st9" d="M821.6,265.6h-7.9V281h7.9V265.6z"/>
<path class="st9" d="M687.8,265.6h-7.9V281h7.9V265.6z"/>
<path class="st18" d="M636.5,225.7h-19.4l-1-3.3h18L636.5,225.7z"/>
<path class="st18" d="M733,284.8l-18.6-9.9l8.1,0.6l17.5,9.3H733z"/>
</svg>
